<svg xmlns="http://www.w3.org/2000/svg" xmlns:xlink="http://www.w3.org/1999/xlink" width="256" zoomAndPan="magnify" viewBox="0 0 192 191.999996" height="256" preserveAspectRatio="xMidYMid meet" version="1.0"><defs><clipPath id="1249be7475"><path d="M 137.539062 118.367188 L 142.113281 118.367188 L 142.113281 122.945312 L 137.539062 122.945312 Z M 137.539062 118.367188 " clip-rule="nonzero"/></clipPath><clipPath id="6376ebdcbd"><path d="M 139.824219 118.367188 C 138.5625 118.367188 137.539062 119.394531 137.539062 120.65625 C 137.539062 121.921875 138.5625 122.945312 139.824219 122.945312 C 141.089844 122.945312 142.113281 121.921875 142.113281 120.65625 C 142.113281 119.394531 141.089844 118.367188 139.824219 118.367188 Z M 139.824219 118.367188 " clip-rule="nonzero"/></clipPath><clipPath id="3c417821fa"><path d="M 3.03125 3.03125 L 189.03125 3.03125 L 189.03125 189.03125 L 3.03125 189.03125 Z M 3.03125 3.03125 " clip-rule="nonzero"/></clipPath></defs><g clip-path="url(#1249be7475)"><g clip-path="url(#6376ebdcbd)"><path fill="#c76495" d="M 137.539062 118.367188 L 142.113281 118.367188 L 142.113281 122.945312 L 137.539062 122.945312 Z M 137.539062 118.367188 " fill-opacity="1" fill-rule="nonzero"/></g></g><g clip-path="url(#3c417821fa)"><path fill="#563d7c" d="M 3.03125 165.046875 C 3.03125 178.292969 13.769531 189.03125 27.011719 189.03125 L 165.046875 189.03125 C 178.289062 189.03125 189.027344 178.292969 189.027344 165.046875 L 189.027344 27.015625 C 189.027344 13.765625 178.289062 3.03125 165.046875 3.03125 L 27.011719 3.03125 C 13.765625 3.03125 3.027344 13.769531 3.027344 27.011719 L 3.027344 165.046875 Z M 3.03125 165.046875 " fill-opacity="1" fill-rule="nonzero"/></g><path fill="#ffffff" d="M 80.160156 85.304688 L 80.160156 58.964844 L 103.347656 58.964844 C 105.554688 58.964844 107.683594 59.148438 109.734375 59.515625 C 111.78125 59.882812 113.597656 60.539062 115.175781 61.488281 C 116.75 62.433594 118.015625 63.75 118.960938 65.429688 C 119.90625 67.113281 120.378906 69.269531 120.378906 71.898438 C 120.378906 76.628906 118.960938 80.046875 116.121094 82.152344 C 113.285156 84.253906 109.652344 85.304688 105.234375 85.304688 Z M 55.398438 39.722656 L 55.398438 152.339844 L 109.972656 152.339844 C 115.015625 152.339844 119.933594 151.707031 124.714844 150.441406 C 129.503906 149.183594 133.761719 147.238281 137.496094 144.609375 C 141.230469 141.976562 144.195312 138.59375 146.402344 134.4375 C 148.609375 130.28125 149.714844 125.367188 149.714844 119.6875 C 149.714844 112.644531 148.007812 106.625 144.59375 101.632812 C 141.171875 96.632812 136 93.136719 129.050781 91.140625 C 134.101562 88.722656 137.917969 85.617188 140.488281 81.832031 C 143.066406 78.046875 144.355469 73.316406 144.355469 67.640625 C 144.355469 62.382812 143.488281 57.964844 141.753906 54.390625 C 140.015625 50.816406 137.574219 47.949219 134.421875 45.792969 C 131.261719 43.636719 127.476562 42.085938 123.066406 41.140625 C 118.648438 40.195312 113.757812 39.722656 108.394531 39.722656 Z M 80.160156 133.097656 L 80.160156 102.183594 L 107.132812 102.183594 C 112.492188 102.183594 116.800781 103.417969 120.066406 105.890625 C 123.328125 108.359375 124.953125 112.488281 124.953125 118.269531 C 124.953125 121.210938 124.453125 123.632812 123.457031 125.527344 C 122.453125 127.417969 121.117188 128.914062 119.433594 130.019531 C 117.753906 131.121094 115.808594 131.914062 113.597656 132.386719 C 111.390625 132.859375 109.078125 133.097656 106.660156 133.097656 Z M 80.160156 133.097656 " fill-opacity="1" fill-rule="nonzero"/></svg>