<svg xmlns="http://www.w3.org/2000/svg" xmlns:xlink="http://www.w3.org/1999/xlink" width="256" zoomAndPan="magnify" viewBox="0 0 192 191.999996" height="256" preserveAspectRatio="xMidYMid meet" version="1.0"><defs><clipPath id="06406498c5"><path d="M 1.246094 1.246094 L 190.996094 1.246094 L 190.996094 190.996094 L 1.246094 190.996094 Z M 1.246094 1.246094 " clip-rule="nonzero"/></clipPath><clipPath id="b6dff0a1c8"><path d="M 137.539062 118.367188 L 142.113281 118.367188 L 142.113281 122.945312 L 137.539062 122.945312 Z M 137.539062 118.367188 " clip-rule="nonzero"/></clipPath><clipPath id="c381eac579"><path d="M 139.824219 118.367188 C 138.5625 118.367188 137.539062 119.394531 137.539062 120.65625 C 137.539062 121.921875 138.5625 122.945312 139.824219 122.945312 C 141.089844 122.945312 142.113281 121.921875 142.113281 120.65625 C 142.113281 119.394531 141.089844 118.367188 139.824219 118.367188 Z M 139.824219 118.367188 " clip-rule="nonzero"/></clipPath></defs><g clip-path="url(#06406498c5)"><path fill="#c76495" d="M 96.121094 190.996094 C 148.515625 190.996094 190.996094 148.515625 190.996094 96.121094 C 190.996094 43.726562 148.515625 1.246094 96.121094 1.246094 C 43.726562 1.246094 1.246094 43.726562 1.246094 96.121094 C 1.246094 148.515625 43.726562 190.996094 96.121094 190.996094 Z M 51.929688 54.683594 C 64.179688 43.226562 81.214844 34.441406 96.941406 28.851562 C 123.386719 19.453125 151.335938 24.996094 155.621094 41.859375 L 155.042969 41.328125 C 159.195312 57.933594 144.84375 77.746094 126.472656 84.851562 C 110.105469 91.25 96.460938 90.191406 90.894531 88.410156 C 84.480469 86.277344 80.804688 82.125 79.855469 79.753906 C 79.5 78.804688 78.90625 77.261719 79.855469 76.789062 C 80.449219 76.425781 80.6875 76.542969 82.339844 78.324219 C 83.886719 79.992188 89.9375 84.488281 101.558594 83.183594 C 132.039062 79.753906 150.292969 56.144531 144.496094 43.464844 C 140.464844 34.570312 117.09375 30.527344 87.800781 45.125 C 52.105469 62.914062 50.089844 77.609375 49.851562 83.183594 C 49.023438 98.484375 68.828125 106.546875 79.5 118.050781 C 79.847656 118.289062 80.09375 118.527344 80.332031 118.882812 C 83.523438 117.578125 88.039062 116.984375 95.15625 116.859375 C 112.460938 116.628906 122.195312 128.003906 121.839844 138.203125 C 121.484375 146.277344 114.121094 149.597656 112.816406 149.835938 C 111.875 149.953125 111.277344 149.953125 111.15625 149.242188 C 111.046875 148.757812 111.402344 148.53125 112.589844 147.808594 C 113.78125 147.097656 117.207031 144.609375 117.917969 140.347656 C 118.636719 136.078125 115.316406 125.640625 98.703125 123.742188 C 92.773438 123.023438 88.15625 123.5 84.238281 124.566406 C 87.097656 130.851562 87.683594 143.660156 81.042969 153.628906 C 74.164062 163.820312 61.355469 170.113281 48.902344 166.667969 C 44.871094 165.609375 38.703125 157.296875 44.039062 145.675781 C 49.023438 134.640625 70.28125 123.972656 73.183594 122.550781 L 73.183594 122.503906 C 63.332031 114.019531 39.375 102.585938 36 85.105469 C 35.042969 80.148438 37.359375 68.289062 51.929688 54.683594 Z M 51.929688 54.683594 " fill-opacity="1" fill-rule="nonzero"/></g><path fill="#c76495" d="M 55.03125 157.480469 C 58.335938 159.394531 66.035156 157.117188 71.554688 151.117188 C 73.367188 149.140625 74.835938 147.003906 75.941406 144.710938 C 76.148438 144.269531 76.371094 143.800781 76.558594 143.320312 L 77.074219 141.898438 C 78.496094 137.59375 78.648438 132.828125 77.261719 127.730469 L 76.410156 128.210938 L 76.410156 128.234375 C 76.410156 128.234375 66.535156 132.90625 59.648438 140.164062 C 53.242188 146.925781 51.472656 155.410156 55.03125 157.480469 Z M 55.03125 157.480469 " fill-opacity="1" fill-rule="nonzero"/><g clip-path="url(#b6dff0a1c8)"><g clip-path="url(#c381eac579)"><path fill="#c76495" d="M 137.539062 118.367188 L 142.113281 118.367188 L 142.113281 122.945312 L 137.539062 122.945312 Z M 137.539062 118.367188 " fill-opacity="1" fill-rule="nonzero"/></g></g></svg>